<svg width="30" height="30" viewBox="0 0 30 30" fill="none" xmlns="http://www.w3.org/2000/svg">
<path d="M23.75 1.25H6.25C4.59301 1.25198 3.00445 1.91103 1.83277 3.08257C0.661102 4.25411 0.00198482 5.8425 0 7.4993L0 22.4976C0.00198482 24.1544 0.661102 25.7428 1.83277 26.9144C3.00445 28.0859 4.59301 28.745 6.25 28.7469H23.75C25.407 28.745 26.9956 28.0859 28.1672 26.9144C29.3389 25.7428 29.998 24.1544 30 22.4976V7.4993C29.998 5.8425 29.3389 4.25411 28.1672 3.08257C26.9956 1.91103 25.407 1.25198 23.75 1.25ZM6.25 3.74972H23.75C24.4985 3.75119 25.2294 3.97659 25.8487 4.3969C26.468 4.81722 26.9473 5.41322 27.225 6.10821L17.6525 15.6809C16.948 16.3825 15.9943 16.7764 15 16.7764C14.0057 16.7764 13.052 16.3825 12.3475 15.6809L2.775 6.10821C3.05269 5.41322 3.53202 4.81722 4.15131 4.3969C4.7706 3.97659 5.50152 3.75119 6.25 3.74972ZM23.75 26.2472H6.25C5.25544 26.2472 4.30161 25.8522 3.59835 25.149C2.89509 24.4458 2.5 23.4921 2.5 22.4976V9.3741L10.58 17.4482C11.7533 18.6184 13.3428 19.2755 15 19.2755C16.6572 19.2755 18.2467 18.6184 19.42 17.4482L27.5 9.3741V22.4976C27.5 23.4921 27.1049 24.4458 26.4017 25.149C25.6984 25.8522 24.7446 26.2472 23.75 26.2472Z" fill="black"/>
</svg>
